<?xml version="1.0" encoding="iso-8859-1"?>
<!-- Generator: Adobe Illustrator 19.0.0, SVG Export Plug-In . SVG Version: 6.00 Build 0)  -->
<svg version="1.1" id="Layer_1" xmlns="http://www.w3.org/2000/svg" xmlns:xlink="http://www.w3.org/1999/xlink" x="0px" y="0px"
	 viewBox="0 0 512 512" style="enable-background:new 0 0 512 512;" xml:space="preserve">
<path style="fill:#FFDE33;" d="M256,0C115.3,0,0,115.3,0,256s115.3,256,256,256s256-115.3,256-256S396.7,0,256,0z"/>
<path style="fill:#FFBC33;" d="M512,256c0,140.7-115.3,256-256,256V0C396.7,0,512,115.3,512,256z"/>
<path style="fill:#FCB33B;" d="M256,60C148.599,60,60,148.599,60,256c0,107.399,88.599,196,196,196s196-88.601,196-196
	C452,148.599,363.401,60,256,60z"/>
<path style="fill:#F69838;" d="M452,256c0,107.399-88.599,196-196,196V60C363.401,60,452,148.599,452,256z"/>
<path style="fill:#FFDE33;" d="M286,241h-15v-60h15c8.401,0,15,6.599,15,15c0,8.399,6.599,15,15,15s15-6.601,15-15
	c0-24.901-20.099-45-45-45h-15v-15c0-8.401-6.599-15-15-15s-15,6.599-15,15v15h-15c-24.901,0-45,20.099-45,45v30
	c0,24.899,20.099,45,45,45h15v60h-15c-8.401,0-15-6.601-15-15c0-8.401-6.599-15-15-15s-15,6.599-15,15c0,24.899,20.099,45,45,45h15
	v15c0,8.399,6.599,15,15,15s15-6.601,15-15v-15h15c24.901,0,45-20.101,45-45v-30C331,261.099,310.901,241,286,241z M241,241h-15
	c-8.401,0-15-6.601-15-15v-30c0-8.401,6.599-15,15-15h15V241z M301,316c0,8.399-6.599,15-15,15h-15v-60h15c8.401,0,15,6.599,15,15
	V316z"/>
<path style="fill:#FFBC33;" d="M286,241h-15v-60h15c8.401,0,15,6.599,15,15c0,8.399,6.599,15,15,15s15-6.601,15-15
	c0-24.901-20.099-45-45-45h-15v-15c0-8.401-6.599-15-15-15v270c8.401,0,15-6.601,15-15v-15h15c24.901,0,45-20.101,45-45v-30
	C331,261.099,310.901,241,286,241z M301,316c0,8.399-6.599,15-15,15h-15v-60h15c8.401,0,15,6.599,15,15V316z"/>
<g>
</g>
<g>
</g>
<g>
</g>
<g>
</g>
<g>
</g>
<g>
</g>
<g>
</g>
<g>
</g>
<g>
</g>
<g>
</g>
<g>
</g>
<g>
</g>
<g>
</g>
<g>
</g>
<g>
</g>
</svg>
