<?xml version="1.0" encoding="iso-8859-1"?>
<!-- Generator: Adobe Illustrator 19.0.0, SVG Export Plug-In . SVG Version: 6.00 Build 0)  -->
<svg version="1.1" id="Layer_1" xmlns="http://www.w3.org/2000/svg" xmlns:xlink="http://www.w3.org/1999/xlink" x="0px" y="0px"
	 viewBox="0 0 480.031 480.031" style="enable-background:new 0 0 480.031 480.031;" xml:space="preserve">
<g>
	<path style="fill:#F9ECDE;" d="M21.775,469.76l-11.352-11.352C12.767,463.272,16.695,467.376,21.775,469.76z"/>
	<polygon style="fill:#F9ECDE;" points="72.031,400.016 88.031,400.016 104.031,384.016 120.031,384.016 136.031,400.016 
		152.031,400.016 168.031,384.016 184.031,384.016 200.031,400.016 216.031,400.016 238.695,384.904 184.031,312.016 
		184.031,152.016 104.031,152.016 104.031,200.016 104.031,240.016 104.031,280.016 104.031,312.016 49.367,384.904 	"/>
	<polygon style="fill:#F9ECDE;" points="472.031,336.016 472.031,272.016 288.031,272.016 312.031,304.016 312.031,336.016 	"/>
</g>
<path style="fill:#66CEDB;" d="M312.031,440.016c0,17.672,14.328,32,32,32h96c17.672,0,32-14.328,32-32v-104h-160V440.016z"/>
<g>
	<polygon style="fill:#F6BF58;" points="192.031,24.016 192.031,40.016 192.031,56.016 376.031,56.016 376.031,24.016 	"/>
	<path style="fill:#F6BF58;" d="M120.031,88.016c0,22.088,10.744,32,24,32s24-9.912,24-32s-24-48-24-48
		S120.031,65.928,120.031,88.016z"/>
</g>
<path style="fill:#66CEDB;" d="M392.031,8.016h-16v16v32v16h16c8.84,0,16-7.16,16-16v-32
	C408.031,15.176,400.871,8.016,392.031,8.016z"/>
<path style="fill:#F6BF58;" d="M456.031,24.016h-48v32h48c8.84,0,16-7.16,16-16S464.871,24.016,456.031,24.016z"/>
<g>
	<circle style="fill:#66CEDB;" cx="440.031" cy="224.016" r="16"/>
	<circle style="fill:#66CEDB;" cx="312.031" cy="104.016" r="16"/>
	<circle style="fill:#66CEDB;" cx="336.031" cy="192.016" r="32"/>
	<circle style="fill:#66CEDB;" cx="432.031" cy="128.016" r="24"/>
</g>
<polygon style="fill:#F6BF58;" points="21.775,469.76 24.031,472.016 32.031,472.016 256.031,472.016 264.031,472.016 
	280.031,464.016 280.031,440.016 240.031,384.016 238.695,384.904 216.031,400.016 200.031,400.016 184.031,384.016 
	168.031,384.016 152.031,400.016 136.031,400.016 120.031,384.016 104.031,384.016 88.031,400.016 72.031,400.016 49.367,384.904 
	48.031,384.016 8.031,440.016 8.031,456.016 10.423,458.408 "/>
<g>
	<path style="fill:#010133;" d="M284.655,462.328c5.456-10.912,4.296-23.752-3.024-33.504l-89.6-119.472V160.016h16v-16h-24h-80h-24
		v16h16v149.336l-89.6,119.472c-7.32,9.76-8.48,22.592-3.024,33.504c5.456,10.904,16.424,17.688,28.624,17.688h224
		C268.231,480.016,279.199,473.232,284.655,462.328z M110.431,316.816c1.04-1.384,1.6-3.064,1.6-4.8v-24h24v-16h-24v-24h24v-16h-24
		v-24h24v-16h-24v-32h64v152c0,1.736,0.56,3.416,1.6,4.8l47.68,63.576c-2.816,1.88-5.056,4.064-6.96,5.96
		c-3.92,3.928-5.848,5.664-10.36,5.664s-6.44-1.736-10.368-5.664c-4.368-4.36-10.352-10.336-21.672-10.336
		c-11.312,0-17.288,5.976-21.656,10.344c-3.92,3.92-5.84,5.656-10.336,5.656s-6.416-1.736-10.336-5.656
		c-4.352-4.368-10.328-10.344-21.632-10.344s-17.288,5.976-21.648,10.344c-3.92,3.92-5.84,5.656-10.328,5.656
		c-4.496,0-6.416-1.736-10.336-5.656c-1.896-1.896-4.136-4.08-6.944-5.96L110.431,316.816z M17.719,455.176
		c-2.768-5.544-2.2-11.808,1.512-16.76l33.88-45.168c1.64,0.92,3.176,2.344,5.256,4.432c4.36,4.36,10.336,10.336,21.648,10.336
		s17.28-5.976,21.648-10.344c3.92-3.92,5.84-5.656,10.328-5.656s6.408,1.736,10.328,5.656c4.36,4.368,10.336,10.344,21.648,10.344
		s17.288-5.976,21.656-10.344c3.92-3.92,5.84-5.656,10.336-5.656c4.504,0,6.44,1.736,10.368,5.664
		c4.36,4.36,10.344,10.336,21.664,10.336s17.304-5.976,21.672-10.336c2.096-2.096,3.632-3.52,5.288-4.44l33.88,45.176
		c3.712,4.952,4.28,11.216,1.512,16.76c-2.768,5.536-8.12,8.84-14.312,8.84h-224C25.839,464.016,20.487,460.712,17.719,455.176z"/>
	<path style="fill:#010133;" d="M480.031,440.016v-168c0-4.424-3.584-8-8-8h-184c-3.032,0-5.8,1.712-7.16,4.424
		s-1.056,5.952,0.76,8.376l22.4,29.864v133.336c0,22.056,17.944,40,40,40h96C462.087,480.016,480.031,462.072,480.031,440.016z
		 M464.031,280.016v40.824c-7.864,1.664-12.84,5.6-17.008,8.928c-4.704,3.76-7.816,6.248-15.016,6.248
		c-7.2,0-10.312-2.488-15.016-6.248c-5.432-4.344-12.192-9.752-25-9.752s-19.568,5.408-25,9.752c-4.704,3.76-7.808,6.248-15,6.248
		c-7.184,0-10.288-2.488-14.984-6.24c-4.16-3.336-9.128-7.272-16.984-8.936v-16.824c0-1.736-0.56-3.416-1.6-4.8l-14.392-19.2
		H464.031z M320.031,440.016V337.584c2.432,1.096,4.496,2.688,6.984,4.672c5.424,4.352,12.184,9.76,24.984,9.76
		c12.808,0,19.56-5.408,24.992-9.752c4.696-3.76,7.8-6.248,15-6.248c7.2,0,10.304,2.488,15.008,6.248
		c5.432,4.344,12.2,9.752,25.008,9.752s19.576-5.408,25.008-9.752c2.496-1.992,4.576-3.592,7.016-4.688v102.44
		c0,13.232-10.768,24-24,24h-96C330.799,464.016,320.031,453.248,320.031,440.016z"/>
	<path style="fill:#010133;" d="M456.031,16.016h-41.472c-3.312-9.288-12.112-16-22.528-16h-16c-4.416,0-8,3.576-8,8v8h-176
		c-4.416,0-8,3.576-8,8v8h-40v0.112c-2.176,0-4.352,0.816-5.864,2.448c-1.072,1.16-26.136,28.496-26.136,53.44
		c0,29.52,17.24,40,32,40s32-10.48,32-40c0-14.368-8.312-29.504-15.568-40h23.568v8c0,4.424,3.584,8,8,8h176v8c0,4.424,3.584,8,8,8
		h16c10.416,0,19.216-6.712,22.528-16h41.472c13.232,0,24-10.768,24-24S469.263,16.016,456.031,16.016z M144.031,112.016
		c-13.92,0-16-15.04-16-24c0-11.68,8.984-26.208,16.008-35.472c7.024,9.248,15.992,23.744,15.992,35.472
		C160.031,96.976,157.951,112.016,144.031,112.016z M200.031,48.016v-16h168v16H200.031z M392.031,64.016h-8v-8v-32v-8h8
		c4.408,0,8,3.584,8,8v32C400.031,60.432,396.439,64.016,392.031,64.016z M456.031,48.016h-40v-16h40c4.408,0,8,3.584,8,8
		S460.439,48.016,456.031,48.016z"/>
	<path style="fill:#010133;" d="M416.031,224.016c0,13.232,10.768,24,24,24s24-10.768,24-24s-10.768-24-24-24
		S416.031,210.784,416.031,224.016z M448.031,224.016c0,4.416-3.592,8-8,8s-8-3.584-8-8s3.592-8,8-8S448.031,219.6,448.031,224.016z
		"/>
	<path style="fill:#010133;" d="M312.031,80.016c-13.232,0-24,10.768-24,24s10.768,24,24,24s24-10.768,24-24
		S325.263,80.016,312.031,80.016z M312.031,112.016c-4.408,0-8-3.584-8-8s3.592-8,8-8s8,3.584,8,8S316.439,112.016,312.031,112.016z
		"/>
	<path style="fill:#010133;" d="M296.031,192.016c0,22.056,17.944,40,40,40s40-17.944,40-40s-17.944-40-40-40
		S296.031,169.96,296.031,192.016z M336.031,168.016c13.232,0,24,10.768,24,24s-10.768,24-24,24s-24-10.768-24-24
		S322.799,168.016,336.031,168.016z"/>
	<path style="fill:#010133;" d="M432.031,96.016c-17.648,0-32,14.352-32,32s14.352,32,32,32s32-14.352,32-32
		S449.679,96.016,432.031,96.016z M432.031,144.016c-8.824,0-16-7.176-16-16s7.176-16,16-16s16,7.176,16,16
		S440.855,144.016,432.031,144.016z"/>
	<rect x="336.031" y="368.016" style="fill:#010133;" width="32" height="16"/>
	<rect x="336.031" y="400.016" style="fill:#010133;" width="32" height="16"/>
	<rect x="336.031" y="432.016" style="fill:#010133;" width="32" height="16"/>
	<rect x="432.031" y="432.016" style="fill:#010133;" width="16" height="16"/>
	<rect x="432.031" y="400.016" style="fill:#010133;" width="16" height="16"/>
	<rect x="400.031" y="432.016" style="fill:#010133;" width="16" height="16"/>
</g>
</svg>
